# xmcd CD database file
#
# Track frame offsets:
#	150
#	28950
#	51157
#	69490
#	93002
#	110925
#	134075
#	154832
#	191640
#	206667
#	235015
#	264270
#	282842
#	304262
#
# Disc length: 4301 seconds
#
# Revision: 0
# Processed by: cddbd v1.5PL3 Copyright (c) Steve Scherf et al.
# Submitted via: CDex 1.51
#
DISCID=cf10cb0e
DTITLE=Various Artist - Optimism Sampler Volume 3
DYEAR=1989
DGENRE=Jazz
TTITLE0=Knoble and Gerber - Lena
TTITLE1=John Bolivar - Just in Love
TTITLE2=Cheryl Barnes - What are You Doing the Rest of Your Life
TTITLE3=Birds of a Feather - Waiting
TTITLE4=Alphonse Mouzon - Waterfall
TTITLE5=Crossing Point - In Due Time
TTITLE6=Janet Grice - Song for Andy
TTITLE7=Billy Mitchell - Sahara
TTITLE8=Carol Joy Robins - Love Me Like a Man
TTITLE9=Alphonse Mouzon - The Next Time We Love
TTITLE10=Alexander Zonjic - Only Love
TTITLE11=Michael Pedicin Jr - Relay
TTITLE12=Uncle Festive - Flasher
TTITLE13=Fattburger - Park Lane
EXTD=YEAR: 1989
EXTT0=
EXTT1=
EXTT2=
EXTT3=
EXTT4=
EXTT5=
EXTT6=
EXTT7=
EXTT8=
EXTT9=
EXTT10=
EXTT11=
EXTT12=
EXTT13=
PLAYORDER=
